name Walk1.mot
datacolumns 19
datarows 20
range 1.61900000 1.63800000
endheader

                time	   L_ground_force_vx	   L_ground_force_vy	   L_ground_force_vz	   L_ground_force_px	   L_ground_force_py	   L_ground_force_pz	   R_ground_force_vx	   R_ground_force_vy	   R_ground_force_vz	   R_ground_force_px	   R_ground_force_py	   R_ground_force_pz	   L_ground_torque_x	   L_ground_torque_y	   L_ground_torque_z	   R_ground_torque_x	   R_ground_torque_y	   R_ground_torque_z	
          1.61900000	          0.00000000	          0.00000000	          0.00000000	          0.00000000	          0.00000000	          0.00000000	         18.22194293	        638.58460064	         33.33554560	         -0.15340002	          0.00000000	         -0.04476846	          0.00000000	          0.00000000	          0.00000000	          0.00000000	         -1.78685599	          0.00000000	
          1.62000000	          0.00000000	          0.00000000	          0.00000000	          0.00000000	          0.00000000	          0.00000000	         18.48117055	        639.05193099	         33.47068264	         -0.15285069	          0.00000000	         -0.04486190	          0.00000000	          0.00000000	          0.00000000	          0.00000000	         -1.77297751	          0.00000000	
          1.62100000	          0.00000000	          0.00000000	          0.00000000	          0.00000000	          0.00000000	          0.00000000	         18.72416902	        639.48485152	         33.60726555	         -0.15226453	          0.00000000	         -0.04495319	          0.00000000	          0.00000000	          0.00000000	          0.00000000	         -1.75600252	          0.00000000	
          1.62200000	          0.00000000	          0.00000000	          0.00000000	          0.00000000	          0.00000000	          0.00000000	         18.95487489	        639.94154532	         33.75546649	         -0.15164405	          0.00000000	         -0.04503304	          0.00000000	          0.00000000	          0.00000000	          0.00000000	         -1.74095573	          0.00000000	
          1.62300000	          0.00000000	          0.00000000	          0.00000000	          0.00000000	          0.00000000	          0.00000000	         19.18173806	        640.44335770	         33.91408760	         -0.15100858	          0.00000000	         -0.04506736	          0.00000000	          0.00000000	          0.00000000	          0.00000000	         -1.73421548	          0.00000000	
          1.62400000	          0.00000000	          0.00000000	          0.00000000	          0.00000000	          0.00000000	          0.00000000	         19.40711634	        640.97689970	         34.08085925	         -0.15036843	          0.00000000	         -0.04502725	          0.00000000	          0.00000000	          0.00000000	          0.00000000	         -1.73782409	          0.00000000	
          1.62500000	          0.00000000	          0.00000000	          0.00000000	          0.00000000	          0.00000000	          0.00000000	         19.63284561	        641.54616124	         34.25561286	         -0.14972685	          0.00000000	         -0.04492883	          0.00000000	          0.00000000	          0.00000000	          0.00000000	         -1.75147701	          0.00000000	
          1.62600000	          0.00000000	          0.00000000	          0.00000000	          0.00000000	          0.00000000	          0.00000000	         19.86611780	        642.17218090	         34.43465467	         -0.14909493	          0.00000000	         -0.04482602	          0.00000000	          0.00000000	          0.00000000	          0.00000000	         -1.77333253	          0.00000000	
          1.62700000	          0.00000000	          0.00000000	          0.00000000	          0.00000000	          0.00000000	          0.00000000	         20.10533059	        642.86835569	         34.61256428	         -0.14848731	          0.00000000	         -0.04476209	          0.00000000	          0.00000000	          0.00000000	          0.00000000	         -1.79720772	          0.00000000	
          1.62800000	          0.00000000	          0.00000000	          0.00000000	          0.00000000	          0.00000000	          0.00000000	         20.33263608	        643.63865729	         34.78249214	         -0.14791262	          0.00000000	         -0.04474306	          0.00000000	          0.00000000	          0.00000000	          0.00000000	         -1.81857990	          0.00000000	
          1.62900000	          0.00000000	          0.00000000	          0.00000000	          0.00000000	          0.00000000	          0.00000000	         20.53634224	        644.47824795	         34.93364338	         -0.14737750	          0.00000000	         -0.04475243	          0.00000000	          0.00000000	          0.00000000	          0.00000000	         -1.84032488	          0.00000000	
          1.63000000	          0.00000000	          0.00000000	          0.00000000	          0.00000000	          0.00000000	          0.00000000	         20.72988463	        645.37487389	         35.06307571	         -0.14688616	          0.00000000	         -0.04476703	          0.00000000	          0.00000000	          0.00000000	          0.00000000	         -1.86278887	          0.00000000	
          1.63100000	          0.00000000	          0.00000000	          0.00000000	          0.00000000	          0.00000000	          0.00000000	         20.93647608	        646.31525362	         35.18787397	         -0.14642313	          0.00000000	         -0.04477339	          0.00000000	          0.00000000	          0.00000000	          0.00000000	         -1.87655783	          0.00000000	
          1.63200000	          0.00000000	          0.00000000	          0.00000000	          0.00000000	          0.00000000	          0.00000000	         21.16833978	        647.28672605	         35.32933816	         -0.14595197	          0.00000000	         -0.04479619	          0.00000000	          0.00000000	          0.00000000	          0.00000000	         -1.87537947	          0.00000000	
          1.63300000	          0.00000000	          0.00000000	          0.00000000	          0.00000000	          0.00000000	          0.00000000	         21.42773115	        648.27112596	         35.49223472	         -0.14544678	          0.00000000	         -0.04488256	          0.00000000	          0.00000000	          0.00000000	          0.00000000	         -1.86459883	          0.00000000	
          1.63400000	          0.00000000	          0.00000000	          0.00000000	          0.00000000	          0.00000000	          0.00000000	         21.71072855	        649.24324690	         35.67261706	         -0.14491100	          0.00000000	         -0.04503978	          0.00000000	          0.00000000	          0.00000000	          0.00000000	         -1.84879140	          0.00000000	
          1.63500000	          0.00000000	          0.00000000	          0.00000000	          0.00000000	          0.00000000	          0.00000000	         22.00580700	        650.18594456	         35.87025956	         -0.14436056	          0.00000000	         -0.04522733	          0.00000000	          0.00000000	          0.00000000	          0.00000000	         -1.82523691	          0.00000000	
          1.63600000	          0.00000000	          0.00000000	          0.00000000	          0.00000000	          0.00000000	          0.00000000	         22.30342642	        651.10320841	         36.08153288	         -0.14380870	          0.00000000	         -0.04540576	          0.00000000	          0.00000000	          0.00000000	          0.00000000	         -1.79529388	          0.00000000	
          1.63700000	          0.00000000	          0.00000000	          0.00000000	          0.00000000	          0.00000000	          0.00000000	         22.60648745	        652.01390198	         36.29581467	         -0.14326209	          0.00000000	         -0.04554997	          0.00000000	          0.00000000	          0.00000000	          0.00000000	         -1.76871827	          0.00000000	
          1.63800000	          0.00000000	          0.00000000	          0.00000000	          0.00000000	          0.00000000	          0.00000000	         22.92201487	        652.94083372	         36.50984761	         -0.14271296	          0.00000000	         -0.04563532	          0.00000000	          0.00000000	          0.00000000	          0.00000000	         -1.75375973	          0.00000000	
